<?xml version="1.0" encoding="UTF-8" standalone="no"?>
<!-- Created with Inkscape (http://www.inkscape.org/) -->

<svg
   width="210mm"
   height="297mm"
   viewBox="0 0 210 297"
   version="1.1"
   id="svg5"
   inkscape:version="1.1.1 (3bf5ae0d25, 2021-09-20)"
   sodipodi:docname="logo.svg"
   xmlns:inkscape="http://www.inkscape.org/namespaces/inkscape"
   xmlns:sodipodi="http://sodipodi.sourceforge.net/DTD/sodipodi-0.dtd"
   xmlns="http://www.w3.org/2000/svg"
   xmlns:svg="http://www.w3.org/2000/svg">
  <sodipodi:namedview
     id="namedview7"
     pagecolor="#ffffff"
     bordercolor="#111111"
     borderopacity="1"
     inkscape:pageshadow="0"
     inkscape:pageopacity="0"
     inkscape:pagecheckerboard="1"
     inkscape:document-units="px"
     showgrid="false"
     inkscape:zoom="5.4327778"
     inkscape:cx="396.85039"
     inkscape:cy="109.2443"
     inkscape:window-width="5160"
     inkscape:window-height="2054"
     inkscape:window-x="5749"
     inkscape:window-y="322"
     inkscape:window-maximized="1"
     inkscape:current-layer="layer1" />
  <defs
     id="defs2">
    <rect
       x="225.32999"
       y="114.73014"
       width="75.262972"
       height="83.523542"
       id="rect8092" />
    <rect
       x="78.934336"
       y="102.33928"
       width="95.914397"
       height="92.701953"
       id="rect6854" />
    <rect
       x="78.934336"
       y="102.33928"
       width="95.914397"
       height="92.701953"
       id="rect23474" />
    <rect
       x="225.32999"
       y="114.73014"
       width="75.262972"
       height="83.523542"
       id="rect23476" />
    <rect
       x="78.934336"
       y="102.33928"
       width="95.914397"
       height="92.701953"
       id="rect23566" />
    <rect
       x="225.32999"
       y="114.73014"
       width="75.262972"
       height="83.523542"
       id="rect23568" />
    <rect
       x="225.32999"
       y="114.73014"
       width="75.262972"
       height="83.523542"
       id="rect23574" />
  </defs>
  <g
     inkscape:label="Vrstva 1"
     inkscape:groupmode="layer"
     id="layer1">
    <text
       xml:space="preserve"
       transform="matrix(0.26458333,0,0,0.26458333,-0.11363664,0)"
       id="text6852"
       style="font-style:normal;font-weight:normal;font-size:40px;line-height:1.25;font-family:sans-serif;white-space:pre;shape-inside:url(#rect6854);fill:#000000;fill-opacity:1;stroke:none"><tspan
         x="78.933594"
         y="138.77924"
         id="tspan1219"><tspan
           style="font-weight:500;font-family:Outfit;-inkscape-font-specification:'Outfit, Medium'"
           id="tspan1217">M</tspan></tspan></text>
    <text
       xml:space="preserve"
       transform="matrix(0.26458333,0,0,0.26458333,-32.237734,-2.1476645)"
       id="text8090"
       style="font-style:normal;font-weight:normal;font-size:40px;line-height:1.25;font-family:sans-serif;white-space:pre;shape-inside:url(#rect8092);fill:#000000;fill-opacity:1;stroke:none"><tspan
         x="225.33008"
         y="151.16986"
         id="tspan1223"><tspan
           style="font-weight:500;font-family:Outfit;-inkscape-font-specification:'Outfit, Medium'"
           id="tspan1221">S</tspan></tspan></text>
    <text
       xml:space="preserve"
       transform="matrix(0.15074371,0,0,0.15074371,37.583377,10.48606)"
       id="text23560"
       style="font-style:normal;font-weight:normal;font-size:40px;line-height:1.25;font-family:sans-serif;white-space:pre;shape-inside:url(#rect23566);fill:#000000;fill-opacity:1;stroke:none;stroke-width:1.75519"><tspan
         x="78.933594"
         y="138.77924"
         id="tspan1227"><tspan
           style="font-weight:500;font-family:Outfit;-inkscape-font-specification:'Outfit, Medium'"
           id="tspan1225">M</tspan></tspan></text>
    <path
       id="text23564"
       style="font-style:normal;font-weight:normal;font-size:40px;line-height:1.25;font-family:sans-serif;white-space:pre;shape-inside:url(#rect23568);opacity:1;fill:#000000;fill-opacity:1;stroke:none;stroke-width:0.999999"
       d="m 159.67578,119.39453 c -3.12,2.44 -4.7207,5.36078 -4.7207,9.80078 0,6.04 3.12015,9.83985 8.16015,9.83985 10.4,0 7.24016,-13.2793 13.16016,-13.2793 1.86138,0 2.92803,1.28417 3.11133,3.65039 0.009,0.24476 0.0156,0.55616 0.0156,0.80273 0,6.04 3.12016,9.83985 8.16016,9.83985 10.4,0 7.24016,-13.2793 13.16016,-13.2793 2.03998,0 3.20117,1.63946 3.20117,4.43945 0,2.24001 -0.88164,3.88047 -2.68164,5.48047 l 3.12109,3.11914 c 2.24,-1.83999 3.83984,-4.80046 3.83984,-8.48047 0,-5.15998 -2.88078,-9.1582 -7.80078,-9.1582 -10,0 -6.55914,13.2793 -13.11914,13.2793 -2.24,0 -3.59961,-2.00008 -3.59961,-5.08008 0.0252,-0.36982 -0.0502,-0.91606 -0.0449,-1.18164 -0.36883,-4.63841 -3.10565,-8.0332 -7.68359,-8.0332 -10,0 -6.5611,13.28125 -13.1211,13.28125 -2.24,0 -3.5996,-2.00008 -3.5996,-5.08008 0,-3.32 1.32054,-5.27985 3.56054,-6.83985 z"
       transform="scale(0.26458333)"
       sodipodi:nodetypes="cssscssssccsssccssscc" />
    <rect
       style="fill:#ffffff;stroke-width:3.96875;stroke-linecap:round;stroke-linejoin:round;stroke-dasharray:7.9375, 7.9375;opacity:1"
       id="rect861"
       width="16.933332"
       height="16.933332"
       x="56.250141"
       y="25.768255"
       inkscape:export-filename="C:\Users\MatousDesktop\Documents\SynologyDrive\Coding\web\test\images\logo.png"
       inkscape:export-xdpi="96"
       inkscape:export-ydpi="96" />
    <path
       id="path24459"
       style="font-style:normal;font-weight:normal;font-size:40px;line-height:1.25;font-family:sans-serif;white-space:pre;shape-inside:url(#rect23568);opacity:1;fill:#000000;fill-opacity:1;stroke:none;stroke-width:0.264583"
       d="m 58.809346,36.815159 c -0.798392,-0.678822 -1.189934,-1.468294 -1.141864,-2.64206 0.06539,-1.596745 0.931381,-2.5675 2.263764,-2.512934 2.749361,0.112597 1.770251,3.588926 3.335273,3.65302 0.492077,0.02015 0.787962,-0.307785 0.862038,-0.931339 0.005,-0.06461 0.01012,-0.146859 0.01279,-0.212044 0.06539,-1.596744 0.931384,-2.567498 2.263767,-2.512932 2.749361,0.112597 1.770251,3.588925 3.335272,3.653019 0.539293,0.02209 0.864017,-0.398753 0.894332,-1.138963 0.02425,-0.592173 -0.19106,-1.035394 -0.649589,-1.47786 l 0.858867,-0.79079 c 0.572249,0.510674 0.963133,1.31063 0.923291,2.283484 -0.05586,1.364101 -0.86072,2.389889 -2.161379,2.336622 -2.643617,-0.108266 -1.590216,-3.581553 -3.324429,-3.652575 -0.59217,-0.02425 -0.973253,0.489773 -1.006599,1.304007 0.0027,0.09804 -0.02319,0.241628 -0.02466,0.311894 -0.147726,1.222225 -0.907987,2.090048 -2.118219,2.040484 -2.643617,-0.108266 -1.590714,-3.582088 -3.324926,-3.653111 -0.59217,-0.02425 -0.973251,0.489772 -1.006597,1.304007 -0.03594,0.877681 0.291937,1.410087 0.867218,1.846743 z"
       sodipodi:nodetypes="cssscssssccsssccssscc" />
  </g>
</svg>
